<svg width="338" height="101" viewBox="0 0 338 101" fill="none" xmlns="http://www.w3.org/2000/svg">
<path d="M56.256 25.088C56.256 29.168 55.2 32.912 53.088 36.32C50.976 39.728 47.904 42.512 43.872 44.672C39.84 46.832 35.04 48.104 29.472 48.488L26.376 65.84C25.176 72.512 21.912 75.848 16.584 75.848C13.656 75.848 10.944 74.984 8.448 73.256C6 71.528 4.032 68.888 2.544 65.336C1.056 61.784 0.312 57.416 0.312 52.232C0.312 42.488 1.872 34.232 4.992 27.464C8.16 20.648 12.384 15.56 17.664 12.2C22.992 8.792 28.848 7.088 35.232 7.088C39.744 7.088 43.56 7.88 46.68 9.464C49.848 11.048 52.224 13.208 53.808 15.944C55.44 18.632 56.256 21.68 56.256 25.088ZM30.768 41.072C40.608 39.824 45.528 34.712 45.528 25.736C45.528 22.568 44.472 20 42.36 18.032C40.296 16.016 37.08 15.008 32.712 15.008C27.768 15.008 23.448 16.568 19.752 19.688C16.104 22.808 13.272 27.152 11.256 32.72C9.288 38.24 8.304 44.552 8.304 51.656C8.304 54.632 8.592 57.272 9.168 59.576C9.792 61.88 10.56 63.68 11.472 64.976C12.432 66.224 13.344 66.848 14.208 66.848C15.408 66.848 16.32 65.192 16.944 61.88L19.32 48.272C17.448 47.984 16.632 47.864 16.872 47.912C15.432 47.672 14.496 47.24 14.064 46.616C13.632 45.944 13.416 45.104 13.416 44.096C13.416 43.04 13.704 42.2 14.28 41.576C14.904 40.952 15.744 40.64 16.8 40.64C17.28 40.64 17.64 40.664 17.88 40.712C19.032 40.904 19.92 41.024 20.544 41.072C21.168 37.328 22.056 32.312 23.208 26.024C23.496 24.392 24.144 23.24 25.152 22.568C26.208 21.848 27.432 21.488 28.824 21.488C30.408 21.488 31.536 21.8 32.208 22.424C32.928 23 33.288 23.936 33.288 25.232C33.288 26 33.24 26.624 33.144 27.104L30.768 41.072ZM98.3535 51.944C98.9775 51.944 99.4575 52.232 99.7935 52.808C100.178 53.384 100.37 54.176 100.37 55.184C100.37 57.104 99.9135 58.592 99.0015 59.648C96.7935 62.192 94.5135 64.28 92.1615 65.912C89.8575 67.544 87.2175 68.36 84.2415 68.36C81.7935 68.36 79.9455 67.664 78.6975 66.272C77.4495 64.832 76.8255 62.768 76.8255 60.08C76.8255 58.736 77.1615 56.336 77.8335 52.88C78.4575 49.856 78.7695 47.768 78.7695 46.616C78.7695 45.848 78.5055 45.464 77.9775 45.464C77.3535 45.464 76.4655 46.28 75.3135 47.912C74.1615 49.496 73.0095 51.608 71.8575 54.248C70.7055 56.888 69.7695 59.672 69.0495 62.6C68.1375 66.44 65.8815 68.36 62.2815 68.36C60.8415 68.36 59.8815 67.856 59.4015 66.848C58.9695 65.792 58.7535 63.92 58.7535 61.232C58.7535 59.696 58.7775 58.472 58.8255 57.56L58.8975 51.8C58.8975 44.408 59.6415 36.704 61.1295 28.688C62.6655 20.672 64.8975 13.952 67.8255 8.528C70.8015 3.056 74.3535 0.319996 78.4815 0.319996C80.6895 0.319996 82.4655 1.28 83.8095 3.2C85.2015 5.072 85.8975 7.52 85.8975 10.544C85.8975 15.392 84.4815 20.432 81.6495 25.664C78.8175 30.848 74.2095 36.92 67.8255 43.88C67.6815 46.376 67.6095 48.944 67.6095 51.584C69.1935 47.504 70.9455 44.192 72.8655 41.648C74.8335 39.056 76.7535 37.208 78.6255 36.104C80.5455 35 82.2975 34.448 83.8815 34.448C87.0015 34.448 88.5615 36.008 88.5615 39.128C88.5615 41 88.0335 44.384 86.9775 49.28C86.0655 53.456 85.6095 56.216 85.6095 57.56C85.6095 59.48 86.3055 60.44 87.6975 60.44C88.6575 60.44 89.7855 59.864 91.0815 58.712C92.4255 57.512 94.2015 55.592 96.4095 52.952C96.9855 52.28 97.6335 51.944 98.3535 51.944ZM76.9695 7.448C76.1055 7.448 75.1455 8.696 74.0895 11.192C73.0335 13.64 72.0015 16.976 70.9935 21.2C70.0335 25.376 69.2415 29.936 68.6175 34.88C71.5935 31.376 74.0415 27.56 75.9615 23.432C77.9295 19.304 78.9135 15.56 78.9135 12.2C78.9135 10.664 78.7455 9.488 78.4095 8.672C78.0735 7.856 77.5935 7.448 76.9695 7.448ZM131.254 45.896C131.878 45.896 132.358 46.208 132.694 46.832C133.03 47.456 133.198 48.248 133.198 49.208C133.198 51.512 132.502 52.88 131.11 53.312C128.23 54.32 125.062 54.896 121.606 55.04C120.694 59.072 118.894 62.312 116.206 64.76C113.518 67.16 110.47 68.36 107.062 68.36C104.182 68.36 101.71 67.664 99.6461 66.272C97.6301 64.88 96.0941 63.032 95.0381 60.728C93.9821 58.424 93.4541 55.928 93.4541 53.24C93.4541 49.592 94.1501 46.352 95.5421 43.52C96.9341 40.64 98.8541 38.408 101.302 36.824C103.75 35.192 106.462 34.376 109.438 34.376C113.086 34.376 116.014 35.648 118.222 38.192C120.478 40.688 121.798 43.784 122.182 47.48C124.438 47.336 127.126 46.856 130.246 46.04C130.63 45.944 130.966 45.896 131.254 45.896ZM107.638 60.728C109.174 60.728 110.494 60.104 111.598 58.856C112.75 57.608 113.518 55.808 113.902 53.456C112.414 52.448 111.262 51.128 110.446 49.496C109.678 47.864 109.294 46.136 109.294 44.312C109.294 43.544 109.366 42.776 109.51 42.008H109.15C107.23 42.008 105.622 42.944 104.326 44.816C103.078 46.64 102.454 49.232 102.454 52.592C102.454 55.232 102.958 57.248 103.966 58.64C105.022 60.032 106.246 60.728 107.638 60.728ZM160.959 51.944C161.583 51.944 162.063 52.232 162.399 52.808C162.783 53.384 162.975 54.176 162.975 55.184C162.975 57.104 162.519 58.592 161.607 59.648C159.543 62.192 157.287 64.28 154.839 65.912C152.391 67.544 149.583 68.36 146.415 68.36C136.623 68.36 131.727 61.472 131.727 47.696C131.727 45.584 131.799 43.448 131.943 41.288H129.135C127.695 41.288 126.711 41.024 126.183 40.496C125.703 39.968 125.463 39.128 125.463 37.976C125.463 35.288 126.543 33.944 128.703 33.944H132.807C133.623 28.664 134.871 23.84 136.551 19.472C138.231 15.104 140.247 11.624 142.599 9.032C144.999 6.44 147.567 5.144 150.303 5.144C152.319 5.144 153.903 6.032 155.055 7.808C156.207 9.584 156.783 11.816 156.783 14.504C156.783 21.944 153.663 28.424 147.423 33.944H155.487C156.255 33.944 156.807 34.112 157.143 34.448C157.479 34.784 157.647 35.408 157.647 36.32C157.647 39.632 154.935 41.288 149.511 41.288H140.727C140.631 43.688 140.583 45.56 140.583 46.904C140.583 51.896 141.159 55.4 142.311 57.416C143.511 59.432 145.383 60.44 147.927 60.44C149.991 60.44 151.815 59.816 153.399 58.568C154.983 57.32 156.855 55.448 159.015 52.952C159.591 52.28 160.239 51.944 160.959 51.944ZM148.359 12.056C147.639 12.056 146.823 12.968 145.911 14.792C145.047 16.568 144.207 19.064 143.391 22.28C142.623 25.448 141.975 28.976 141.447 32.864C144.279 30.416 146.391 27.68 147.783 24.656C149.223 21.584 149.943 18.8 149.943 16.304C149.943 13.472 149.415 12.056 148.359 12.056ZM193.832 45.896C194.456 45.896 194.936 46.208 195.272 46.832C195.608 47.456 195.776 48.248 195.776 49.208C195.776 51.512 195.08 52.88 193.688 53.312C190.808 54.32 187.64 54.896 184.184 55.04C183.272 59.072 181.472 62.312 178.784 64.76C176.096 67.16 173.048 68.36 169.64 68.36C166.76 68.36 164.288 67.664 162.224 66.272C160.208 64.88 158.672 63.032 157.616 60.728C156.56 58.424 156.032 55.928 156.032 53.24C156.032 49.592 156.728 46.352 158.12 43.52C159.512 40.64 161.432 38.408 163.88 36.824C166.328 35.192 169.04 34.376 172.016 34.376C175.664 34.376 178.592 35.648 180.8 38.192C183.056 40.688 184.376 43.784 184.76 47.48C187.016 47.336 189.704 46.856 192.824 46.04C193.208 45.944 193.544 45.896 193.832 45.896ZM170.216 60.728C171.752 60.728 173.072 60.104 174.176 58.856C175.328 57.608 176.096 55.808 176.48 53.456C174.992 52.448 173.84 51.128 173.024 49.496C172.256 47.864 171.872 46.136 171.872 44.312C171.872 43.544 171.944 42.776 172.088 42.008H171.728C169.808 42.008 168.2 42.944 166.904 44.816C165.656 46.64 165.032 49.232 165.032 52.592C165.032 55.232 165.536 57.248 166.544 58.64C167.6 60.032 168.824 60.728 170.216 60.728ZM226.461 52.088C227.085 52.088 227.565 52.4 227.901 53.024C228.285 53.6 228.477 54.344 228.477 55.256C228.477 56.36 228.309 57.224 227.973 57.848C227.637 58.472 227.109 59.024 226.389 59.504C222.261 62.288 219.237 64.352 217.317 65.696L212.709 68.792C210.885 78.728 208.485 86.528 205.509 92.192C202.581 97.904 198.837 100.76 194.277 100.76C191.829 100.76 189.837 99.992 188.301 98.456C186.765 96.968 185.997 95 185.997 92.552C185.997 89.144 187.341 85.472 190.029 81.536C192.717 77.648 197.757 72.848 205.149 67.136L205.581 64.328C204.765 65.624 203.685 66.632 202.341 67.352C201.045 68.024 199.749 68.36 198.453 68.36C195.477 68.36 193.101 67.28 191.325 65.12C189.549 62.96 188.661 60.128 188.661 56.624C188.661 52.784 189.549 49.16 191.325 45.752C193.101 42.296 195.453 39.536 198.381 37.472C201.357 35.36 204.501 34.304 207.813 34.304C208.869 34.304 209.565 34.52 209.901 34.952C210.285 35.336 210.597 36.056 210.837 37.112C211.749 36.92 212.805 36.824 214.005 36.824C215.205 36.824 216.045 37.016 216.525 37.4C217.053 37.736 217.317 38.432 217.317 39.488C217.317 40.064 217.293 40.52 217.245 40.856C217.053 42.344 216.453 46.112 215.445 52.16C215.253 53.312 215.037 54.584 214.797 55.976C214.605 57.32 214.389 58.76 214.149 60.296C217.845 57.416 221.397 54.872 224.805 52.664C225.429 52.28 225.981 52.088 226.461 52.088ZM201.045 61.088C202.149 61.088 203.205 60.416 204.213 59.072C205.221 57.728 205.941 55.808 206.373 53.312L208.677 41C206.709 41.048 204.885 41.816 203.205 43.304C201.525 44.744 200.181 46.664 199.173 49.064C198.165 51.464 197.661 54.008 197.661 56.696C197.661 58.184 197.949 59.288 198.525 60.008C199.149 60.728 199.989 61.088 201.045 61.088ZM195.069 93.776C196.269 93.776 197.613 92.336 199.101 89.456C200.637 86.576 202.101 81.992 203.493 75.704C199.797 78.872 197.133 81.728 195.501 84.272C193.869 86.816 193.053 89.048 193.053 90.968C193.053 91.784 193.197 92.456 193.485 92.984C193.821 93.512 194.349 93.776 195.069 93.776ZM228.388 68.36C226.564 68.36 225.268 67.4 224.5 65.48C223.78 63.56 223.42 60.488 223.42 56.264C223.42 50.024 224.308 44.096 226.084 38.48C226.516 37.088 227.212 36.08 228.172 35.456C229.18 34.784 230.572 34.448 232.348 34.448C233.308 34.448 233.98 34.568 234.364 34.808C234.748 35.048 234.94 35.504 234.94 36.176C234.94 36.944 234.58 38.672 233.86 41.36C233.38 43.28 232.996 44.96 232.708 46.4C232.42 47.84 232.18 49.616 231.988 51.728C233.572 47.6 235.348 44.24 237.316 41.648C239.284 39.056 241.204 37.208 243.076 36.104C244.996 35 246.748 34.448 248.332 34.448C251.452 34.448 253.012 36.008 253.012 39.128C253.012 39.752 252.796 41.264 252.364 43.664C251.98 45.584 251.788 46.784 251.788 47.264C251.788 48.944 252.388 49.784 253.588 49.784C254.932 49.784 256.66 48.728 258.772 46.616C259.396 45.992 260.044 45.68 260.716 45.68C261.34 45.68 261.82 45.968 262.156 46.544C262.54 47.072 262.732 47.792 262.732 48.704C262.732 50.48 262.252 51.872 261.292 52.88C259.948 54.272 258.364 55.472 256.54 56.48C254.764 57.44 252.868 57.92 250.852 57.92C248.308 57.92 246.364 57.272 245.02 55.976C243.724 54.68 243.076 52.928 243.076 50.72C243.076 50 243.148 49.28 243.292 48.56C243.388 47.6 243.436 46.952 243.436 46.616C243.436 45.848 243.172 45.464 242.644 45.464C241.924 45.464 240.964 46.28 239.764 47.912C238.612 49.496 237.46 51.608 236.308 54.248C235.156 56.888 234.22 59.672 233.5 62.6C232.972 64.856 232.348 66.392 231.628 67.208C230.956 67.976 229.876 68.36 228.388 68.36ZM264.898 68.36C261.922 68.36 259.546 67.28 257.77 65.12C255.994 62.96 255.106 60.128 255.106 56.624C255.106 52.784 255.994 49.16 257.77 45.752C259.546 42.296 261.898 39.536 264.826 37.472C267.802 35.36 270.946 34.304 274.258 34.304C275.314 34.304 276.01 34.52 276.346 34.952C276.73 35.336 277.042 36.056 277.282 37.112C278.29 36.92 279.346 36.824 280.45 36.824C282.802 36.824 283.978 37.664 283.978 39.344C283.978 40.352 283.618 42.752 282.898 46.544C281.794 52.064 281.242 55.904 281.242 58.064C281.242 58.784 281.41 59.36 281.746 59.792C282.13 60.224 282.61 60.44 283.186 60.44C284.098 60.44 285.202 59.864 286.498 58.712C287.794 57.512 289.546 55.592 291.754 52.952C292.33 52.28 292.978 51.944 293.698 51.944C294.322 51.944 294.802 52.232 295.138 52.808C295.522 53.384 295.714 54.176 295.714 55.184C295.714 57.104 295.258 58.592 294.346 59.648C292.378 62.096 290.29 64.16 288.082 65.84C285.874 67.52 283.738 68.36 281.674 68.36C280.09 68.36 278.626 67.832 277.282 66.776C275.986 65.672 275.002 64.184 274.33 62.312C271.834 66.344 268.69 68.36 264.898 68.36ZM267.49 61.088C268.546 61.088 269.554 60.464 270.514 59.216C271.474 57.968 272.17 56.312 272.602 54.248L275.266 41C273.25 41.048 271.378 41.816 269.65 43.304C267.97 44.744 266.626 46.664 265.618 49.064C264.61 51.464 264.106 54.008 264.106 56.696C264.106 58.184 264.394 59.288 264.97 60.008C265.594 60.728 266.434 61.088 267.49 61.088ZM294.974 68.36C293.15 68.36 291.854 67.4 291.086 65.48C290.366 63.56 290.006 60.488 290.006 56.264C290.006 50.024 290.894 44.096 292.67 38.48C293.102 37.088 293.798 36.08 294.758 35.456C295.766 34.784 297.158 34.448 298.934 34.448C299.894 34.448 300.566 34.568 300.95 34.808C301.334 35.048 301.526 35.504 301.526 36.176C301.526 36.944 301.166 38.672 300.446 41.36C299.966 43.28 299.582 44.96 299.294 46.4C299.006 47.792 298.766 49.544 298.574 51.656C299.87 47.912 301.406 44.744 303.182 42.152C305.006 39.56 306.854 37.64 308.726 36.392C310.646 35.096 312.446 34.448 314.126 34.448C315.806 34.448 316.982 34.832 317.654 35.6C318.374 36.368 318.734 37.544 318.734 39.128C318.734 40.664 318.278 43.448 317.366 47.48C316.982 49.208 316.718 50.504 316.574 51.368C318.158 47.336 319.91 44.048 321.83 41.504C323.798 38.96 325.718 37.16 327.59 36.104C329.462 35 331.19 34.448 332.774 34.448C334.31 34.448 335.462 34.856 336.23 35.672C337.046 36.44 337.454 37.592 337.454 39.128C337.454 40.376 337.19 42.728 336.662 46.184C336.182 49.112 335.798 51.896 335.51 54.536C335.222 57.128 335.078 60.032 335.078 63.248C335.078 65.072 334.694 66.392 333.926 67.208C333.206 67.976 332.006 68.36 330.326 68.36C328.742 68.36 327.59 67.952 326.87 67.136C326.15 66.32 325.79 65.096 325.79 63.464C325.79 61.544 326.126 58.376 326.798 53.96C327.374 50.12 327.662 47.672 327.662 46.616C327.662 45.848 327.398 45.464 326.87 45.464C326.246 45.464 325.358 46.28 324.206 47.912C323.054 49.496 321.902 51.608 320.75 54.248C319.598 56.888 318.662 59.672 317.942 62.6C317.414 64.904 316.79 66.44 316.07 67.208C315.398 67.976 314.294 68.36 312.758 68.36C311.174 68.36 309.974 67.616 309.158 66.128C308.39 64.592 308.006 62.744 308.006 60.584C308.006 58.76 308.246 56.12 308.726 52.664C309.11 49.592 309.302 47.576 309.302 46.616C309.302 45.848 309.038 45.464 308.51 45.464C307.79 45.464 306.878 46.328 305.774 48.056C304.67 49.784 303.59 51.992 302.534 54.68C301.526 57.368 300.71 60.008 300.086 62.6C299.558 64.856 298.934 66.392 298.214 67.208C297.542 67.976 296.462 68.36 294.974 68.36Z" fill="white"/>
</svg>
